<mxfile host="app.diagrams.net" agent="Mozilla/5.0 (Windows NT 10.0; Win64; x64) AppleWebKit/537.36 (KHTML, like Gecko) Chrome/139.0.0.0 Safari/537.36" version="28.1.0">
  <diagram name="Page-1" id="h6vrUuEAPeyXAixK_5yC">
    <mxGraphModel dx="2151" dy="1845" grid="1" gridSize="10" guides="1" tooltips="1" connect="1" arrows="1" fold="1" page="1" pageScale="1" pageWidth="850" pageHeight="1100" math="0" shadow="0">
      <root>
        <mxCell id="0" />
        <mxCell id="1" parent="0" />
        <mxCell id="m4mPxKqUkQ5Nzj17A7rj-1" value="Prison" style="whiteSpace=wrap;html=1;align=center;" vertex="1" parent="1">
          <mxGeometry x="290" y="190" width="100" height="40" as="geometry" />
        </mxCell>
        <mxCell id="m4mPxKqUkQ5Nzj17A7rj-2" value="Warden" style="whiteSpace=wrap;html=1;align=center;" vertex="1" parent="1">
          <mxGeometry x="930" y="190" width="100" height="40" as="geometry" />
        </mxCell>
        <mxCell id="m4mPxKqUkQ5Nzj17A7rj-3" value="Officer" style="whiteSpace=wrap;html=1;align=center;" vertex="1" parent="1">
          <mxGeometry x="190" y="390" width="100" height="40" as="geometry" />
        </mxCell>
        <mxCell id="m4mPxKqUkQ5Nzj17A7rj-4" value="Prisoner" style="whiteSpace=wrap;html=1;align=center;" vertex="1" parent="1">
          <mxGeometry x="430" y="430" width="100" height="40" as="geometry" />
        </mxCell>
        <mxCell id="m4mPxKqUkQ5Nzj17A7rj-5" value="Cell" style="whiteSpace=wrap;html=1;align=center;" vertex="1" parent="1">
          <mxGeometry x="820" y="250" width="100" height="40" as="geometry" />
        </mxCell>
        <mxCell id="m4mPxKqUkQ5Nzj17A7rj-6" value="Case Manager" style="whiteSpace=wrap;html=1;align=center;" vertex="1" parent="1">
          <mxGeometry x="940" y="470" width="100" height="40" as="geometry" />
        </mxCell>
        <mxCell id="m4mPxKqUkQ5Nzj17A7rj-7" value="Lawyer" style="whiteSpace=wrap;html=1;align=center;" vertex="1" parent="1">
          <mxGeometry x="810" y="495.63" width="100" height="40" as="geometry" />
        </mxCell>
        <mxCell id="m4mPxKqUkQ5Nzj17A7rj-8" value="Medical Worker" style="whiteSpace=wrap;html=1;align=center;" vertex="1" parent="1">
          <mxGeometry x="407.5" y="590" width="100" height="40" as="geometry" />
        </mxCell>
        <mxCell id="m4mPxKqUkQ5Nzj17A7rj-9" value="Visitor" style="whiteSpace=wrap;html=1;align=center;" vertex="1" parent="1">
          <mxGeometry x="650" y="580" width="100" height="40" as="geometry" />
        </mxCell>
        <mxCell id="m4mPxKqUkQ5Nzj17A7rj-10" value="Case&amp;nbsp;" style="whiteSpace=wrap;html=1;align=center;" vertex="1" parent="1">
          <mxGeometry x="570" y="780" width="100" height="40" as="geometry" />
        </mxCell>
        <mxCell id="m4mPxKqUkQ5Nzj17A7rj-11" value="Police" style="whiteSpace=wrap;html=1;align=center;" vertex="1" parent="1">
          <mxGeometry x="600" y="980" width="100" height="40" as="geometry" />
        </mxCell>
        <mxCell id="m4mPxKqUkQ5Nzj17A7rj-14" value="Prison ID" style="ellipse;whiteSpace=wrap;html=1;align=center;fontStyle=4;" vertex="1" parent="1">
          <mxGeometry x="52" y="170" width="100" height="40" as="geometry" />
        </mxCell>
        <mxCell id="m4mPxKqUkQ5Nzj17A7rj-15" value="Prison_Name" style="ellipse;whiteSpace=wrap;html=1;align=center;" vertex="1" parent="1">
          <mxGeometry x="110" y="120" width="100" height="40" as="geometry" />
        </mxCell>
        <mxCell id="m4mPxKqUkQ5Nzj17A7rj-16" value="Capacity" style="ellipse;whiteSpace=wrap;html=1;align=center;" vertex="1" parent="1">
          <mxGeometry x="340" y="10" width="100" height="40" as="geometry" />
        </mxCell>
        <mxCell id="m4mPxKqUkQ5Nzj17A7rj-17" value="Type" style="ellipse;whiteSpace=wrap;html=1;align=center;" vertex="1" parent="1">
          <mxGeometry x="250" y="40" width="100" height="40" as="geometry" />
        </mxCell>
        <mxCell id="m4mPxKqUkQ5Nzj17A7rj-18" value="Location" style="ellipse;whiteSpace=wrap;html=1;align=center;" vertex="1" parent="1">
          <mxGeometry x="180" y="80" width="100" height="40" as="geometry" />
        </mxCell>
        <mxCell id="m4mPxKqUkQ5Nzj17A7rj-20" value="Number_of_Cells" style="ellipse;whiteSpace=wrap;html=1;align=center;" vertex="1" parent="1">
          <mxGeometry x="144" y="210" width="100" height="40" as="geometry" />
        </mxCell>
        <mxCell id="m4mPxKqUkQ5Nzj17A7rj-25" value="W_Name" style="ellipse;whiteSpace=wrap;html=1;align=center;" vertex="1" parent="1">
          <mxGeometry x="784.99" y="-10" width="100" height="40" as="geometry" />
        </mxCell>
        <mxCell id="m4mPxKqUkQ5Nzj17A7rj-26" value="W_Rank" style="ellipse;whiteSpace=wrap;html=1;align=center;" vertex="1" parent="1">
          <mxGeometry x="884.99" y="70" width="100" height="40" as="geometry" />
        </mxCell>
        <mxCell id="m4mPxKqUkQ5Nzj17A7rj-28" value="Responsibilities" style="ellipse;whiteSpace=wrap;html=1;align=center;" vertex="1" parent="1">
          <mxGeometry x="1030" y="60" width="100" height="40" as="geometry" />
        </mxCell>
        <mxCell id="m4mPxKqUkQ5Nzj17A7rj-29" value="Officer ID" style="ellipse;whiteSpace=wrap;html=1;align=center;fontStyle=4;" vertex="1" parent="1">
          <mxGeometry x="-20" y="390" width="100" height="40" as="geometry" />
        </mxCell>
        <mxCell id="m4mPxKqUkQ5Nzj17A7rj-30" value="O_Name" style="ellipse;whiteSpace=wrap;html=1;align=center;" vertex="1" parent="1">
          <mxGeometry x="30" y="330" width="100" height="40" as="geometry" />
        </mxCell>
        <mxCell id="m4mPxKqUkQ5Nzj17A7rj-33" value="O_Rank" style="ellipse;whiteSpace=wrap;html=1;align=center;" vertex="1" parent="1">
          <mxGeometry x="-20" y="440" width="100" height="40" as="geometry" />
        </mxCell>
        <mxCell id="m4mPxKqUkQ5Nzj17A7rj-34" value="O_Shift_Timings" style="ellipse;whiteSpace=wrap;html=1;align=center;" vertex="1" parent="1">
          <mxGeometry x="-48" y="490" width="100" height="40" as="geometry" />
        </mxCell>
        <mxCell id="m4mPxKqUkQ5Nzj17A7rj-35" value="Assigned_Block" style="ellipse;whiteSpace=wrap;html=1;align=center;" vertex="1" parent="1">
          <mxGeometry x="-70" y="560" width="100" height="40" as="geometry" />
        </mxCell>
        <mxCell id="m4mPxKqUkQ5Nzj17A7rj-38" value="Prisoner ID" style="ellipse;whiteSpace=wrap;html=1;align=center;fontStyle=4;" vertex="1" parent="1">
          <mxGeometry x="305" y="400" width="85" height="30" as="geometry" />
        </mxCell>
        <mxCell id="m4mPxKqUkQ5Nzj17A7rj-39" value="Age" style="ellipse;whiteSpace=wrap;html=1;align=center;" vertex="1" parent="1">
          <mxGeometry x="400" y="490" width="70" height="25" as="geometry" />
        </mxCell>
        <mxCell id="m4mPxKqUkQ5Nzj17A7rj-43" value="Gender" style="ellipse;whiteSpace=wrap;html=1;align=center;" vertex="1" parent="1">
          <mxGeometry x="625" y="328.75" width="60" height="21.25" as="geometry" />
        </mxCell>
        <mxCell id="m4mPxKqUkQ5Nzj17A7rj-49" value="Status" style="ellipse;whiteSpace=wrap;html=1;align=center;" vertex="1" parent="1">
          <mxGeometry x="258.75" y="485" width="72.5" height="20" as="geometry" />
        </mxCell>
        <mxCell id="m4mPxKqUkQ5Nzj17A7rj-50" value="Medical_History" style="ellipse;whiteSpace=wrap;html=1;align=center;" vertex="1" parent="1">
          <mxGeometry x="320" y="508" width="95" height="37.5" as="geometry" />
        </mxCell>
        <mxCell id="m4mPxKqUkQ5Nzj17A7rj-51" value="Cell ID" style="ellipse;whiteSpace=wrap;html=1;align=center;fontStyle=4;" vertex="1" parent="1">
          <mxGeometry x="790" y="350" width="100" height="40" as="geometry" />
        </mxCell>
        <mxCell id="m4mPxKqUkQ5Nzj17A7rj-53" value="C_Capacity" style="ellipse;whiteSpace=wrap;html=1;align=center;" vertex="1" parent="1">
          <mxGeometry x="880" y="395" width="100" height="40" as="geometry" />
        </mxCell>
        <mxCell id="m4mPxKqUkQ5Nzj17A7rj-54" value="Cell_Type" style="ellipse;whiteSpace=wrap;html=1;align=center;" vertex="1" parent="1">
          <mxGeometry x="940" y="340" width="100" height="40" as="geometry" />
        </mxCell>
        <mxCell id="m4mPxKqUkQ5Nzj17A7rj-55" value="Security_Level" style="ellipse;whiteSpace=wrap;html=1;align=center;" vertex="1" parent="1">
          <mxGeometry x="960" y="255.16" width="100" height="40" as="geometry" />
        </mxCell>
        <mxCell id="m4mPxKqUkQ5Nzj17A7rj-56" value="Case Manager ID" style="ellipse;whiteSpace=wrap;html=1;align=center;fontStyle=4;" vertex="1" parent="1">
          <mxGeometry x="1200" y="540" width="100" height="40" as="geometry" />
        </mxCell>
        <mxCell id="m4mPxKqUkQ5Nzj17A7rj-57" value="C_Name" style="ellipse;whiteSpace=wrap;html=1;align=center;" vertex="1" parent="1">
          <mxGeometry x="1210" y="482.5" width="100" height="40" as="geometry" />
        </mxCell>
        <mxCell id="m4mPxKqUkQ5Nzj17A7rj-58" value="Case_History" style="ellipse;whiteSpace=wrap;html=1;align=center;" vertex="1" parent="1">
          <mxGeometry x="1120" y="390" width="100" height="40" as="geometry" />
        </mxCell>
        <mxCell id="m4mPxKqUkQ5Nzj17A7rj-60" value="Release_Plan" style="ellipse;whiteSpace=wrap;html=1;align=center;" vertex="1" parent="1">
          <mxGeometry x="1210" y="429.31" width="100" height="40" as="geometry" />
        </mxCell>
        <mxCell id="m4mPxKqUkQ5Nzj17A7rj-62" value="Lawyer ID" style="ellipse;whiteSpace=wrap;html=1;align=center;fontStyle=4;" vertex="1" parent="1">
          <mxGeometry x="710" y="537.15" width="90" height="17.85" as="geometry" />
        </mxCell>
        <mxCell id="m4mPxKqUkQ5Nzj17A7rj-63" value="L_Name" style="ellipse;whiteSpace=wrap;html=1;align=center;" vertex="1" parent="1">
          <mxGeometry x="754.99" y="564.5" width="80" height="20" as="geometry" />
        </mxCell>
        <mxCell id="m4mPxKqUkQ5Nzj17A7rj-64" value="L_Specialization" style="ellipse;whiteSpace=wrap;html=1;align=center;" vertex="1" parent="1">
          <mxGeometry x="1000" y="525" width="104.99" height="30" as="geometry" />
        </mxCell>
        <mxCell id="m4mPxKqUkQ5Nzj17A7rj-65" value="Firm_Name" style="ellipse;whiteSpace=wrap;html=1;align=center;" vertex="1" parent="1">
          <mxGeometry x="1040" y="570" width="94.99" height="30" as="geometry" />
        </mxCell>
        <mxCell id="m4mPxKqUkQ5Nzj17A7rj-67" value="Medical Worker ID" style="ellipse;whiteSpace=wrap;html=1;align=center;fontStyle=4;" vertex="1" parent="1">
          <mxGeometry x="285" y="577.15" width="100" height="40" as="geometry" />
        </mxCell>
        <mxCell id="m4mPxKqUkQ5Nzj17A7rj-68" value="M_Name" style="ellipse;whiteSpace=wrap;html=1;align=center;" vertex="1" parent="1">
          <mxGeometry x="297.5" y="640" width="85" height="30" as="geometry" />
        </mxCell>
        <mxCell id="m4mPxKqUkQ5Nzj17A7rj-69" value="M_Role" style="ellipse;whiteSpace=wrap;html=1;align=center;" vertex="1" parent="1">
          <mxGeometry x="470" y="685" width="60" height="20" as="geometry" />
        </mxCell>
        <mxCell id="m4mPxKqUkQ5Nzj17A7rj-71" value="Medical_Record" style="ellipse;whiteSpace=wrap;html=1;align=center;" vertex="1" parent="1">
          <mxGeometry x="297.5" y="685" width="110" height="30" as="geometry" />
        </mxCell>
        <mxCell id="m4mPxKqUkQ5Nzj17A7rj-72" value="Visitor ID" style="ellipse;whiteSpace=wrap;html=1;align=center;fontStyle=4;" vertex="1" parent="1">
          <mxGeometry x="650" y="660" width="80" height="25" as="geometry" />
        </mxCell>
        <mxCell id="m4mPxKqUkQ5Nzj17A7rj-73" value="V_Name" style="ellipse;whiteSpace=wrap;html=1;align=center;" vertex="1" parent="1">
          <mxGeometry x="639.38" y="632.5" width="50" height="25" as="geometry" />
        </mxCell>
        <mxCell id="m4mPxKqUkQ5Nzj17A7rj-74" value="Relationship_to_Prisoner" style="ellipse;whiteSpace=wrap;html=1;align=center;" vertex="1" parent="1">
          <mxGeometry x="760" y="620" width="150" height="40" as="geometry" />
        </mxCell>
        <mxCell id="m4mPxKqUkQ5Nzj17A7rj-75" value="Visit_Date" style="ellipse;whiteSpace=wrap;html=1;align=center;" vertex="1" parent="1">
          <mxGeometry x="697.5" y="725" width="92.5" height="30" as="geometry" />
        </mxCell>
        <mxCell id="m4mPxKqUkQ5Nzj17A7rj-76" value="Approval_Status" style="ellipse;whiteSpace=wrap;html=1;align=center;" vertex="1" parent="1">
          <mxGeometry x="744.99" y="685" width="100" height="30" as="geometry" />
        </mxCell>
        <mxCell id="m4mPxKqUkQ5Nzj17A7rj-77" value="Police ID" style="ellipse;whiteSpace=wrap;html=1;align=center;fontStyle=4;" vertex="1" parent="1">
          <mxGeometry x="467.5" y="1050" width="100" height="40" as="geometry" />
        </mxCell>
        <mxCell id="m4mPxKqUkQ5Nzj17A7rj-78" value="PO_Name" style="ellipse;whiteSpace=wrap;html=1;align=center;" vertex="1" parent="1">
          <mxGeometry x="470" y="1130" width="100" height="40" as="geometry" />
        </mxCell>
        <mxCell id="m4mPxKqUkQ5Nzj17A7rj-79" value="PO_Rank" style="ellipse;whiteSpace=wrap;html=1;align=center;" vertex="1" parent="1">
          <mxGeometry x="800" y="1050" width="100" height="40" as="geometry" />
        </mxCell>
        <mxCell id="m4mPxKqUkQ5Nzj17A7rj-80" value="Department" style="ellipse;whiteSpace=wrap;html=1;align=center;" vertex="1" parent="1">
          <mxGeometry x="715" y="1100" width="100" height="40" as="geometry" />
        </mxCell>
        <mxCell id="m4mPxKqUkQ5Nzj17A7rj-82" value="Case ID" style="ellipse;whiteSpace=wrap;html=1;align=center;fontStyle=4;" vertex="1" parent="1">
          <mxGeometry x="280" y="840" width="80" height="30" as="geometry" />
        </mxCell>
        <mxCell id="m4mPxKqUkQ5Nzj17A7rj-83" value="Case_Type" style="ellipse;whiteSpace=wrap;html=1;align=center;" vertex="1" parent="1">
          <mxGeometry x="325" y="910" width="75" height="30" as="geometry" />
        </mxCell>
        <mxCell id="m4mPxKqUkQ5Nzj17A7rj-84" value="Court_Date" style="ellipse;whiteSpace=wrap;html=1;align=center;" vertex="1" parent="1">
          <mxGeometry x="244" y="795" width="125" height="30" as="geometry" />
        </mxCell>
        <mxCell id="m4mPxKqUkQ5Nzj17A7rj-86" value="Sentence" style="ellipse;whiteSpace=wrap;html=1;align=center;" vertex="1" parent="1">
          <mxGeometry x="527.5" y="870" width="95" height="40" as="geometry" />
        </mxCell>
        <mxCell id="m4mPxKqUkQ5Nzj17A7rj-87" value="Appeal_Status" style="ellipse;whiteSpace=wrap;html=1;align=center;" vertex="1" parent="1">
          <mxGeometry x="430" y="890" width="95" height="30" as="geometry" />
        </mxCell>
        <mxCell id="m4mPxKqUkQ5Nzj17A7rj-94" value="contain" style="shape=rhombus;perimeter=rhombusPerimeter;whiteSpace=wrap;html=1;align=center;" vertex="1" parent="1">
          <mxGeometry x="297.5" y="310" width="100" height="50" as="geometry" />
        </mxCell>
        <mxCell id="m4mPxKqUkQ5Nzj17A7rj-95" value="has" style="shape=rhombus;perimeter=rhombusPerimeter;whiteSpace=wrap;html=1;align=center;" vertex="1" parent="1">
          <mxGeometry x="170" y="280" width="150" height="60" as="geometry" />
        </mxCell>
        <mxCell id="m4mPxKqUkQ5Nzj17A7rj-96" value="manage" style="shape=rhombus;perimeter=rhombusPerimeter;whiteSpace=wrap;html=1;align=center;" vertex="1" parent="1">
          <mxGeometry x="595" y="-60" width="120" height="70" as="geometry" />
        </mxCell>
        <mxCell id="m4mPxKqUkQ5Nzj17A7rj-97" value="assign" style="shape=rhombus;perimeter=rhombusPerimeter;whiteSpace=wrap;html=1;align=center;direction=east;" vertex="1" parent="1">
          <mxGeometry x="697.5" y="345" width="70" height="40" as="geometry" />
        </mxCell>
        <mxCell id="m4mPxKqUkQ5Nzj17A7rj-98" value="hold" style="shape=rhombus;perimeter=rhombusPerimeter;whiteSpace=wrap;html=1;align=center;" vertex="1" parent="1">
          <mxGeometry x="630" y="10" width="120" height="60" as="geometry" />
        </mxCell>
        <mxCell id="m4mPxKqUkQ5Nzj17A7rj-99" value="handled" style="shape=rhombus;perimeter=rhombusPerimeter;whiteSpace=wrap;html=1;align=center;direction=east;rotation=20;" vertex="1" parent="1">
          <mxGeometry x="720" y="400.00000000000006" width="110.02" height="49.31" as="geometry" />
        </mxCell>
        <mxCell id="m4mPxKqUkQ5Nzj17A7rj-100" value="have" style="shape=rhombus;perimeter=rhombusPerimeter;whiteSpace=wrap;html=1;align=center;rotation=35;" vertex="1" parent="1">
          <mxGeometry x="680" y="445.63" width="110" height="50" as="geometry" />
        </mxCell>
        <mxCell id="m4mPxKqUkQ5Nzj17A7rj-101" value="treat" style="shape=rhombus;perimeter=rhombusPerimeter;whiteSpace=wrap;html=1;align=center;" vertex="1" parent="1">
          <mxGeometry x="430" y="530" width="85" height="30.35" as="geometry" />
        </mxCell>
        <mxCell id="m4mPxKqUkQ5Nzj17A7rj-103" value="visit" style="shape=rhombus;perimeter=rhombusPerimeter;whiteSpace=wrap;html=1;align=center;rotation=60;" vertex="1" parent="1">
          <mxGeometry x="625" y="477.85" width="95" height="37.15" as="geometry" />
        </mxCell>
        <mxCell id="m4mPxKqUkQ5Nzj17A7rj-104" value="involves" style="shape=rhombus;perimeter=rhombusPerimeter;whiteSpace=wrap;html=1;align=center;rotation=80;" vertex="1" parent="1">
          <mxGeometry x="579.99" y="525" width="92.5" height="32" as="geometry" />
        </mxCell>
        <mxCell id="m4mPxKqUkQ5Nzj17A7rj-105" value="investigate" style="shape=rhombus;perimeter=rhombusPerimeter;whiteSpace=wrap;html=1;align=center;" vertex="1" parent="1">
          <mxGeometry x="604.38" y="895" width="120" height="60" as="geometry" />
        </mxCell>
        <mxCell id="m4mPxKqUkQ5Nzj17A7rj-106" value="keeps" style="shape=rhombus;perimeter=rhombusPerimeter;whiteSpace=wrap;html=1;align=center;rotation=345;" vertex="1" parent="1">
          <mxGeometry x="440" y="200" width="120" height="40" as="geometry" />
        </mxCell>
        <mxCell id="m4mPxKqUkQ5Nzj17A7rj-108" value="include" style="shape=rhombus;perimeter=rhombusPerimeter;whiteSpace=wrap;html=1;align=center;" vertex="1" parent="1">
          <mxGeometry x="744.99" y="770" width="120" height="60" as="geometry" />
        </mxCell>
        <mxCell id="m4mPxKqUkQ5Nzj17A7rj-109" value="" style="endArrow=none;html=1;rounded=0;exitX=0.5;exitY=1;exitDx=0;exitDy=0;entryX=0;entryY=0;entryDx=0;entryDy=0;" edge="1" parent="1" source="m4mPxKqUkQ5Nzj17A7rj-15" target="m4mPxKqUkQ5Nzj17A7rj-1">
          <mxGeometry relative="1" as="geometry">
            <mxPoint x="421" y="180" as="sourcePoint" />
            <mxPoint x="581" y="180" as="targetPoint" />
          </mxGeometry>
        </mxCell>
        <mxCell id="m4mPxKqUkQ5Nzj17A7rj-110" value="" style="endArrow=none;html=1;rounded=0;exitX=1;exitY=0.5;exitDx=0;exitDy=0;entryX=0;entryY=0.25;entryDx=0;entryDy=0;" edge="1" parent="1" source="m4mPxKqUkQ5Nzj17A7rj-14" target="m4mPxKqUkQ5Nzj17A7rj-1">
          <mxGeometry relative="1" as="geometry">
            <mxPoint x="421" y="180" as="sourcePoint" />
            <mxPoint x="581" y="180" as="targetPoint" />
          </mxGeometry>
        </mxCell>
        <mxCell id="m4mPxKqUkQ5Nzj17A7rj-111" value="" style="endArrow=none;html=1;rounded=0;exitX=0.5;exitY=1;exitDx=0;exitDy=0;entryX=0.25;entryY=0;entryDx=0;entryDy=0;" edge="1" parent="1" source="m4mPxKqUkQ5Nzj17A7rj-18" target="m4mPxKqUkQ5Nzj17A7rj-1">
          <mxGeometry relative="1" as="geometry">
            <mxPoint x="421" y="180" as="sourcePoint" />
            <mxPoint x="581" y="180" as="targetPoint" />
          </mxGeometry>
        </mxCell>
        <mxCell id="m4mPxKqUkQ5Nzj17A7rj-112" value="" style="endArrow=none;html=1;rounded=0;exitX=0.5;exitY=1;exitDx=0;exitDy=0;entryX=0.5;entryY=0;entryDx=0;entryDy=0;" edge="1" parent="1" source="m4mPxKqUkQ5Nzj17A7rj-17" target="m4mPxKqUkQ5Nzj17A7rj-1">
          <mxGeometry relative="1" as="geometry">
            <mxPoint x="421" y="180" as="sourcePoint" />
            <mxPoint x="581" y="180" as="targetPoint" />
          </mxGeometry>
        </mxCell>
        <mxCell id="m4mPxKqUkQ5Nzj17A7rj-113" value="" style="endArrow=none;html=1;rounded=0;exitX=0.33;exitY=1.005;exitDx=0;exitDy=0;entryX=0.75;entryY=0;entryDx=0;entryDy=0;exitPerimeter=0;" edge="1" parent="1" source="m4mPxKqUkQ5Nzj17A7rj-16" target="m4mPxKqUkQ5Nzj17A7rj-1">
          <mxGeometry relative="1" as="geometry">
            <mxPoint x="421" y="180" as="sourcePoint" />
            <mxPoint x="362" y="203" as="targetPoint" />
          </mxGeometry>
        </mxCell>
        <mxCell id="m4mPxKqUkQ5Nzj17A7rj-115" value="" style="endArrow=none;html=1;rounded=0;exitX=1;exitY=0;exitDx=0;exitDy=0;entryX=0;entryY=0.5;entryDx=0;entryDy=0;" edge="1" parent="1" source="m4mPxKqUkQ5Nzj17A7rj-20" target="m4mPxKqUkQ5Nzj17A7rj-1">
          <mxGeometry relative="1" as="geometry">
            <mxPoint x="421" y="180" as="sourcePoint" />
            <mxPoint x="581" y="180" as="targetPoint" />
          </mxGeometry>
        </mxCell>
        <mxCell id="m4mPxKqUkQ5Nzj17A7rj-118" value="Total_Inmates" style="ellipse;whiteSpace=wrap;html=1;align=center;" vertex="1" parent="1">
          <mxGeometry x="380" y="60" width="100" height="40" as="geometry" />
        </mxCell>
        <mxCell id="m4mPxKqUkQ5Nzj17A7rj-119" value="" style="endArrow=none;html=1;rounded=0;exitX=1;exitY=0;exitDx=0;exitDy=0;entryX=0.5;entryY=1;entryDx=0;entryDy=0;" edge="1" parent="1" source="m4mPxKqUkQ5Nzj17A7rj-1" target="m4mPxKqUkQ5Nzj17A7rj-118">
          <mxGeometry relative="1" as="geometry">
            <mxPoint x="420" y="280" as="sourcePoint" />
            <mxPoint x="580" y="280" as="targetPoint" />
          </mxGeometry>
        </mxCell>
        <mxCell id="m4mPxKqUkQ5Nzj17A7rj-120" value="" style="endArrow=none;html=1;rounded=0;exitX=1;exitY=0.5;exitDx=0;exitDy=0;entryX=0;entryY=0.5;entryDx=0;entryDy=0;" edge="1" parent="1" source="m4mPxKqUkQ5Nzj17A7rj-140" target="m4mPxKqUkQ5Nzj17A7rj-4">
          <mxGeometry relative="1" as="geometry">
            <mxPoint x="452" y="577.5" as="sourcePoint" />
            <mxPoint x="952" y="527.5" as="targetPoint" />
          </mxGeometry>
        </mxCell>
        <mxCell id="m4mPxKqUkQ5Nzj17A7rj-121" value="" style="endArrow=none;html=1;rounded=0;entryX=0;entryY=0.25;entryDx=0;entryDy=0;exitX=1;exitY=0;exitDx=0;exitDy=0;" edge="1" parent="1" source="m4mPxKqUkQ5Nzj17A7rj-38" target="m4mPxKqUkQ5Nzj17A7rj-4">
          <mxGeometry relative="1" as="geometry">
            <mxPoint x="402" y="537.5" as="sourcePoint" />
            <mxPoint x="952" y="527.5" as="targetPoint" />
          </mxGeometry>
        </mxCell>
        <mxCell id="m4mPxKqUkQ5Nzj17A7rj-122" value="" style="endArrow=none;html=1;rounded=0;exitX=0.39;exitY=0.994;exitDx=0;exitDy=0;entryX=0.5;entryY=0;entryDx=0;entryDy=0;exitPerimeter=0;" edge="1" parent="1" source="m4mPxKqUkQ5Nzj17A7rj-4" target="m4mPxKqUkQ5Nzj17A7rj-39">
          <mxGeometry relative="1" as="geometry">
            <mxPoint x="792" y="527.5" as="sourcePoint" />
            <mxPoint x="442" y="487.5" as="targetPoint" />
          </mxGeometry>
        </mxCell>
        <mxCell id="m4mPxKqUkQ5Nzj17A7rj-123" value="" style="endArrow=none;html=1;rounded=0;exitX=0.5;exitY=1;exitDx=0;exitDy=0;" edge="1" parent="1" source="m4mPxKqUkQ5Nzj17A7rj-43">
          <mxGeometry relative="1" as="geometry">
            <mxPoint x="607" y="692.5" as="sourcePoint" />
            <mxPoint x="510" y="430" as="targetPoint" />
          </mxGeometry>
        </mxCell>
        <mxCell id="m4mPxKqUkQ5Nzj17A7rj-124" value="" style="endArrow=none;html=1;rounded=0;entryX=0.6;entryY=1;entryDx=0;entryDy=0;exitX=0.5;exitY=0;exitDx=0;exitDy=0;entryPerimeter=0;" edge="1" parent="1" source="m4mPxKqUkQ5Nzj17A7rj-302" target="m4mPxKqUkQ5Nzj17A7rj-4">
          <mxGeometry relative="1" as="geometry">
            <mxPoint x="414.50000000000045" y="387.0999999999999" as="sourcePoint" />
            <mxPoint x="380" y="593.73" as="targetPoint" />
          </mxGeometry>
        </mxCell>
        <mxCell id="m4mPxKqUkQ5Nzj17A7rj-125" value="" style="endArrow=none;html=1;rounded=0;entryX=0.5;entryY=1;entryDx=0;entryDy=0;exitX=0.5;exitY=0;exitDx=0;exitDy=0;" edge="1" parent="1" source="m4mPxKqUkQ5Nzj17A7rj-4" target="m4mPxKqUkQ5Nzj17A7rj-242">
          <mxGeometry relative="1" as="geometry">
            <mxPoint x="520" y="470" as="sourcePoint" />
            <mxPoint x="564.4257487600526" y="471.02029950402107" as="targetPoint" />
          </mxGeometry>
        </mxCell>
        <mxCell id="m4mPxKqUkQ5Nzj17A7rj-126" value="" style="endArrow=none;html=1;rounded=0;entryX=0.5;entryY=1;entryDx=0;entryDy=0;exitX=0.5;exitY=0;exitDx=0;exitDy=0;" edge="1" parent="1" source="m4mPxKqUkQ5Nzj17A7rj-4" target="m4mPxKqUkQ5Nzj17A7rj-247">
          <mxGeometry relative="1" as="geometry">
            <mxPoint x="510" y="470" as="sourcePoint" />
            <mxPoint x="580" y="522.5" as="targetPoint" />
            <Array as="points" />
          </mxGeometry>
        </mxCell>
        <mxCell id="m4mPxKqUkQ5Nzj17A7rj-127" value="" style="endArrow=none;html=1;rounded=0;exitX=0.5;exitY=0;exitDx=0;exitDy=0;entryX=0;entryY=0.75;entryDx=0;entryDy=0;" edge="1" parent="1" source="m4mPxKqUkQ5Nzj17A7rj-49" target="m4mPxKqUkQ5Nzj17A7rj-4">
          <mxGeometry relative="1" as="geometry">
            <mxPoint x="792" y="527.5" as="sourcePoint" />
            <mxPoint x="952" y="527.5" as="targetPoint" />
          </mxGeometry>
        </mxCell>
        <mxCell id="m4mPxKqUkQ5Nzj17A7rj-129" value="" style="endArrow=none;html=1;rounded=0;entryX=0;entryY=1;entryDx=0;entryDy=0;exitX=1;exitY=0.5;exitDx=0;exitDy=0;" edge="1" parent="1" source="m4mPxKqUkQ5Nzj17A7rj-236" target="m4mPxKqUkQ5Nzj17A7rj-4">
          <mxGeometry relative="1" as="geometry">
            <mxPoint x="250" y="540" as="sourcePoint" />
            <mxPoint x="952" y="527.5" as="targetPoint" />
          </mxGeometry>
        </mxCell>
        <mxCell id="m4mPxKqUkQ5Nzj17A7rj-131" value="" style="endArrow=none;html=1;rounded=0;exitX=0.5;exitY=0;exitDx=0;exitDy=0;entryX=0.25;entryY=1;entryDx=0;entryDy=0;" edge="1" parent="1" source="m4mPxKqUkQ5Nzj17A7rj-50" target="m4mPxKqUkQ5Nzj17A7rj-4">
          <mxGeometry relative="1" as="geometry">
            <mxPoint x="792" y="527.5" as="sourcePoint" />
            <mxPoint x="952" y="527.5" as="targetPoint" />
          </mxGeometry>
        </mxCell>
        <mxCell id="m4mPxKqUkQ5Nzj17A7rj-135" value="" style="endArrow=none;html=1;rounded=0;exitX=0.5;exitY=1;exitDx=0;exitDy=0;entryX=0;entryY=0;entryDx=0;entryDy=0;" edge="1" parent="1" source="m4mPxKqUkQ5Nzj17A7rj-25" target="m4mPxKqUkQ5Nzj17A7rj-2">
          <mxGeometry relative="1" as="geometry">
            <mxPoint x="570" y="310" as="sourcePoint" />
            <mxPoint x="730" y="310" as="targetPoint" />
          </mxGeometry>
        </mxCell>
        <mxCell id="m4mPxKqUkQ5Nzj17A7rj-136" value="" style="endArrow=none;html=1;rounded=0;exitX=0.5;exitY=1;exitDx=0;exitDy=0;entryX=0.25;entryY=0;entryDx=0;entryDy=0;" edge="1" parent="1" source="m4mPxKqUkQ5Nzj17A7rj-26" target="m4mPxKqUkQ5Nzj17A7rj-2">
          <mxGeometry relative="1" as="geometry">
            <mxPoint x="570" y="310" as="sourcePoint" />
            <mxPoint x="730" y="310" as="targetPoint" />
          </mxGeometry>
        </mxCell>
        <mxCell id="m4mPxKqUkQ5Nzj17A7rj-137" value="" style="endArrow=none;html=1;rounded=0;exitX=0.5;exitY=1;exitDx=0;exitDy=0;entryX=0.5;entryY=0;entryDx=0;entryDy=0;" edge="1" parent="1" source="m4mPxKqUkQ5Nzj17A7rj-324" target="m4mPxKqUkQ5Nzj17A7rj-2">
          <mxGeometry relative="1" as="geometry">
            <mxPoint x="1000" y="30" as="sourcePoint" />
            <mxPoint x="730" y="310" as="targetPoint" />
          </mxGeometry>
        </mxCell>
        <mxCell id="m4mPxKqUkQ5Nzj17A7rj-138" value="" style="endArrow=none;html=1;rounded=0;exitX=0.5;exitY=1;exitDx=0;exitDy=0;entryX=0.75;entryY=0;entryDx=0;entryDy=0;" edge="1" parent="1" source="m4mPxKqUkQ5Nzj17A7rj-28" target="m4mPxKqUkQ5Nzj17A7rj-2">
          <mxGeometry relative="1" as="geometry">
            <mxPoint x="570" y="310" as="sourcePoint" />
            <mxPoint x="730" y="310" as="targetPoint" />
          </mxGeometry>
        </mxCell>
        <mxCell id="m4mPxKqUkQ5Nzj17A7rj-140" value="P_Name" style="ellipse;whiteSpace=wrap;html=1;align=center;" vertex="1" parent="1">
          <mxGeometry x="310" y="439.31" width="60" height="30" as="geometry" />
        </mxCell>
        <mxCell id="m4mPxKqUkQ5Nzj17A7rj-143" value="" style="endArrow=none;html=1;rounded=0;exitX=1;exitY=0.5;exitDx=0;exitDy=0;entryX=0;entryY=0.5;entryDx=0;entryDy=0;" edge="1" parent="1" source="m4mPxKqUkQ5Nzj17A7rj-29" target="m4mPxKqUkQ5Nzj17A7rj-3">
          <mxGeometry relative="1" as="geometry">
            <mxPoint x="245" y="440" as="sourcePoint" />
            <mxPoint x="275" y="560" as="targetPoint" />
          </mxGeometry>
        </mxCell>
        <mxCell id="m4mPxKqUkQ5Nzj17A7rj-144" value="" style="endArrow=none;html=1;rounded=0;exitX=1;exitY=1;exitDx=0;exitDy=0;entryX=0;entryY=0.25;entryDx=0;entryDy=0;" edge="1" parent="1" source="m4mPxKqUkQ5Nzj17A7rj-30" target="m4mPxKqUkQ5Nzj17A7rj-3">
          <mxGeometry relative="1" as="geometry">
            <mxPoint x="115" y="560" as="sourcePoint" />
            <mxPoint x="275" y="560" as="targetPoint" />
          </mxGeometry>
        </mxCell>
        <mxCell id="m4mPxKqUkQ5Nzj17A7rj-145" value="" style="endArrow=none;html=1;rounded=0;exitX=1;exitY=0;exitDx=0;exitDy=0;entryX=0;entryY=0.75;entryDx=0;entryDy=0;" edge="1" parent="1" source="m4mPxKqUkQ5Nzj17A7rj-33" target="m4mPxKqUkQ5Nzj17A7rj-3">
          <mxGeometry relative="1" as="geometry">
            <mxPoint x="115" y="560" as="sourcePoint" />
            <mxPoint x="275" y="560" as="targetPoint" />
          </mxGeometry>
        </mxCell>
        <mxCell id="m4mPxKqUkQ5Nzj17A7rj-146" value="" style="endArrow=none;html=1;rounded=0;exitX=1;exitY=0;exitDx=0;exitDy=0;entryX=0;entryY=1;entryDx=0;entryDy=0;" edge="1" parent="1" source="m4mPxKqUkQ5Nzj17A7rj-34" target="m4mPxKqUkQ5Nzj17A7rj-3">
          <mxGeometry relative="1" as="geometry">
            <mxPoint x="115" y="560" as="sourcePoint" />
            <mxPoint x="275" y="560" as="targetPoint" />
          </mxGeometry>
        </mxCell>
        <mxCell id="m4mPxKqUkQ5Nzj17A7rj-147" value="" style="endArrow=none;html=1;rounded=0;exitX=0.5;exitY=0;exitDx=0;exitDy=0;entryX=0.18;entryY=0.989;entryDx=0;entryDy=0;entryPerimeter=0;" edge="1" parent="1" source="m4mPxKqUkQ5Nzj17A7rj-35" target="m4mPxKqUkQ5Nzj17A7rj-3">
          <mxGeometry relative="1" as="geometry">
            <mxPoint x="115" y="560" as="sourcePoint" />
            <mxPoint x="275" y="560" as="targetPoint" />
          </mxGeometry>
        </mxCell>
        <mxCell id="m4mPxKqUkQ5Nzj17A7rj-148" value="" style="endArrow=none;html=1;rounded=0;entryX=0.5;entryY=0;entryDx=0;entryDy=0;exitX=0.25;exitY=1;exitDx=0;exitDy=0;" edge="1" parent="1" source="m4mPxKqUkQ5Nzj17A7rj-3" target="m4mPxKqUkQ5Nzj17A7rj-328">
          <mxGeometry relative="1" as="geometry">
            <mxPoint x="115" y="560" as="sourcePoint" />
            <mxPoint x="80" y="542.1500000000001" as="targetPoint" />
          </mxGeometry>
        </mxCell>
        <mxCell id="m4mPxKqUkQ5Nzj17A7rj-152" value="" style="endArrow=none;html=1;rounded=0;exitX=0.5;exitY=1;exitDx=0;exitDy=0;entryX=0.5;entryY=0;entryDx=0;entryDy=0;" edge="1" parent="1" source="m4mPxKqUkQ5Nzj17A7rj-5" target="m4mPxKqUkQ5Nzj17A7rj-53">
          <mxGeometry relative="1" as="geometry">
            <mxPoint x="960" y="380" as="sourcePoint" />
            <mxPoint x="1120" y="380" as="targetPoint" />
          </mxGeometry>
        </mxCell>
        <mxCell id="m4mPxKqUkQ5Nzj17A7rj-153" value="" style="endArrow=none;html=1;rounded=0;exitX=1;exitY=1;exitDx=0;exitDy=0;entryX=0.5;entryY=0;entryDx=0;entryDy=0;" edge="1" parent="1" source="m4mPxKqUkQ5Nzj17A7rj-5" target="m4mPxKqUkQ5Nzj17A7rj-54">
          <mxGeometry relative="1" as="geometry">
            <mxPoint x="960" y="380" as="sourcePoint" />
            <mxPoint x="1120" y="380" as="targetPoint" />
          </mxGeometry>
        </mxCell>
        <mxCell id="m4mPxKqUkQ5Nzj17A7rj-154" value="" style="endArrow=none;html=1;rounded=0;exitX=1;exitY=0.5;exitDx=0;exitDy=0;entryX=0;entryY=0.5;entryDx=0;entryDy=0;" edge="1" parent="1" source="m4mPxKqUkQ5Nzj17A7rj-5" target="m4mPxKqUkQ5Nzj17A7rj-55">
          <mxGeometry relative="1" as="geometry">
            <mxPoint x="960" y="380" as="sourcePoint" />
            <mxPoint x="1120" y="380" as="targetPoint" />
          </mxGeometry>
        </mxCell>
        <mxCell id="m4mPxKqUkQ5Nzj17A7rj-155" value="" style="endArrow=none;html=1;rounded=0;entryX=1;entryY=1;entryDx=0;entryDy=0;exitX=0;exitY=0;exitDx=0;exitDy=0;" edge="1" parent="1" source="m4mPxKqUkQ5Nzj17A7rj-56" target="m4mPxKqUkQ5Nzj17A7rj-6">
          <mxGeometry relative="1" as="geometry">
            <mxPoint x="850" y="820" as="sourcePoint" />
            <mxPoint x="1150" y="725" as="targetPoint" />
          </mxGeometry>
        </mxCell>
        <mxCell id="m4mPxKqUkQ5Nzj17A7rj-156" value="" style="endArrow=none;html=1;rounded=0;exitX=0;exitY=0.5;exitDx=0;exitDy=0;entryX=1;entryY=0.5;entryDx=0;entryDy=0;" edge="1" parent="1" source="m4mPxKqUkQ5Nzj17A7rj-57" target="m4mPxKqUkQ5Nzj17A7rj-6">
          <mxGeometry relative="1" as="geometry">
            <mxPoint x="880" y="725" as="sourcePoint" />
            <mxPoint x="1040" y="725" as="targetPoint" />
          </mxGeometry>
        </mxCell>
        <mxCell id="m4mPxKqUkQ5Nzj17A7rj-157" value="" style="endArrow=none;html=1;rounded=0;exitX=1;exitY=0;exitDx=0;exitDy=0;entryX=0;entryY=0.5;entryDx=0;entryDy=0;" edge="1" parent="1" source="m4mPxKqUkQ5Nzj17A7rj-6" target="m4mPxKqUkQ5Nzj17A7rj-60">
          <mxGeometry relative="1" as="geometry">
            <mxPoint x="880" y="515" as="sourcePoint" />
            <mxPoint x="1040" y="515" as="targetPoint" />
          </mxGeometry>
        </mxCell>
        <mxCell id="m4mPxKqUkQ5Nzj17A7rj-158" value="" style="endArrow=none;html=1;rounded=0;exitX=0.5;exitY=0;exitDx=0;exitDy=0;entryX=0;entryY=0.5;entryDx=0;entryDy=0;" edge="1" parent="1" source="m4mPxKqUkQ5Nzj17A7rj-6" target="m4mPxKqUkQ5Nzj17A7rj-58">
          <mxGeometry relative="1" as="geometry">
            <mxPoint x="1000" y="615" as="sourcePoint" />
            <mxPoint x="1160" y="615" as="targetPoint" />
          </mxGeometry>
        </mxCell>
        <mxCell id="m4mPxKqUkQ5Nzj17A7rj-159" value="" style="endArrow=none;html=1;rounded=0;exitX=0.5;exitY=0;exitDx=0;exitDy=0;entryX=0;entryY=1;entryDx=0;entryDy=0;" edge="1" parent="1" source="m4mPxKqUkQ5Nzj17A7rj-62" target="m4mPxKqUkQ5Nzj17A7rj-7">
          <mxGeometry relative="1" as="geometry">
            <mxPoint x="420" y="880" as="sourcePoint" />
            <mxPoint x="580" y="880" as="targetPoint" />
          </mxGeometry>
        </mxCell>
        <mxCell id="m4mPxKqUkQ5Nzj17A7rj-160" value="" style="endArrow=none;html=1;rounded=0;exitX=0.25;exitY=1;exitDx=0;exitDy=0;entryX=0.5;entryY=0;entryDx=0;entryDy=0;" edge="1" parent="1" source="m4mPxKqUkQ5Nzj17A7rj-7" target="m4mPxKqUkQ5Nzj17A7rj-63">
          <mxGeometry relative="1" as="geometry">
            <mxPoint x="420" y="880" as="sourcePoint" />
            <mxPoint x="580" y="880" as="targetPoint" />
          </mxGeometry>
        </mxCell>
        <mxCell id="m4mPxKqUkQ5Nzj17A7rj-161" value="" style="endArrow=none;html=1;rounded=0;exitX=1;exitY=1;exitDx=0;exitDy=0;entryX=0.5;entryY=0;entryDx=0;entryDy=0;" edge="1" parent="1" source="m4mPxKqUkQ5Nzj17A7rj-7" target="m4mPxKqUkQ5Nzj17A7rj-325">
          <mxGeometry relative="1" as="geometry">
            <mxPoint x="420" y="880" as="sourcePoint" />
            <mxPoint x="961.6970847692437" y="566.0581980335187" as="targetPoint" />
          </mxGeometry>
        </mxCell>
        <mxCell id="m4mPxKqUkQ5Nzj17A7rj-162" value="" style="endArrow=none;html=1;rounded=0;exitX=0;exitY=0;exitDx=0;exitDy=0;entryX=1;entryY=0.5;entryDx=0;entryDy=0;" edge="1" parent="1" source="m4mPxKqUkQ5Nzj17A7rj-65" target="m4mPxKqUkQ5Nzj17A7rj-7">
          <mxGeometry relative="1" as="geometry">
            <mxPoint x="420" y="880" as="sourcePoint" />
            <mxPoint x="870" y="568" as="targetPoint" />
          </mxGeometry>
        </mxCell>
        <mxCell id="m4mPxKqUkQ5Nzj17A7rj-163" value="" style="endArrow=none;html=1;rounded=0;exitX=0;exitY=0;exitDx=0;exitDy=0;entryX=1;entryY=0.5;entryDx=0;entryDy=0;" edge="1" parent="1" source="m4mPxKqUkQ5Nzj17A7rj-64" target="m4mPxKqUkQ5Nzj17A7rj-7">
          <mxGeometry relative="1" as="geometry">
            <mxPoint x="420" y="880" as="sourcePoint" />
            <mxPoint x="580" y="880" as="targetPoint" />
          </mxGeometry>
        </mxCell>
        <mxCell id="m4mPxKqUkQ5Nzj17A7rj-171" value="" style="endArrow=none;html=1;rounded=0;entryX=0;entryY=0.5;entryDx=0;entryDy=0;" edge="1" parent="1" source="m4mPxKqUkQ5Nzj17A7rj-67" target="m4mPxKqUkQ5Nzj17A7rj-8">
          <mxGeometry relative="1" as="geometry">
            <mxPoint x="445" y="630" as="sourcePoint" />
            <mxPoint x="605" y="630" as="targetPoint" />
          </mxGeometry>
        </mxCell>
        <mxCell id="m4mPxKqUkQ5Nzj17A7rj-172" value="" style="endArrow=none;html=1;rounded=0;exitX=0.5;exitY=0;exitDx=0;exitDy=0;entryX=0;entryY=1;entryDx=0;entryDy=0;" edge="1" parent="1" source="m4mPxKqUkQ5Nzj17A7rj-68" target="m4mPxKqUkQ5Nzj17A7rj-8">
          <mxGeometry relative="1" as="geometry">
            <mxPoint x="445" y="630" as="sourcePoint" />
            <mxPoint x="605" y="630" as="targetPoint" />
          </mxGeometry>
        </mxCell>
        <mxCell id="m4mPxKqUkQ5Nzj17A7rj-173" value="" style="endArrow=none;html=1;rounded=0;exitX=0.5;exitY=0;exitDx=0;exitDy=0;entryX=0.25;entryY=1;entryDx=0;entryDy=0;" edge="1" parent="1" source="m4mPxKqUkQ5Nzj17A7rj-71" target="m4mPxKqUkQ5Nzj17A7rj-8">
          <mxGeometry relative="1" as="geometry">
            <mxPoint x="445" y="630" as="sourcePoint" />
            <mxPoint x="605" y="630" as="targetPoint" />
          </mxGeometry>
        </mxCell>
        <mxCell id="m4mPxKqUkQ5Nzj17A7rj-174" value="" style="endArrow=none;html=1;rounded=0;exitX=0.5;exitY=1;exitDx=0;exitDy=0;entryX=0.5;entryY=0;entryDx=0;entryDy=0;" edge="1" parent="1" source="m4mPxKqUkQ5Nzj17A7rj-8" target="m4mPxKqUkQ5Nzj17A7rj-327">
          <mxGeometry relative="1" as="geometry">
            <mxPoint x="445" y="630" as="sourcePoint" />
            <mxPoint x="427.5" y="657.5" as="targetPoint" />
          </mxGeometry>
        </mxCell>
        <mxCell id="m4mPxKqUkQ5Nzj17A7rj-176" value="" style="endArrow=none;html=1;rounded=0;exitX=0.5;exitY=0;exitDx=0;exitDy=0;entryX=0.25;entryY=1;entryDx=0;entryDy=0;" edge="1" parent="1" source="m4mPxKqUkQ5Nzj17A7rj-73" target="m4mPxKqUkQ5Nzj17A7rj-9">
          <mxGeometry relative="1" as="geometry">
            <mxPoint x="910" y="595" as="sourcePoint" />
            <mxPoint x="1070" y="595" as="targetPoint" />
          </mxGeometry>
        </mxCell>
        <mxCell id="m4mPxKqUkQ5Nzj17A7rj-178" value="" style="endArrow=none;html=1;rounded=0;exitX=0.75;exitY=1;exitDx=0;exitDy=0;entryX=0.5;entryY=0;entryDx=0;entryDy=0;" edge="1" parent="1" source="m4mPxKqUkQ5Nzj17A7rj-9" target="m4mPxKqUkQ5Nzj17A7rj-75">
          <mxGeometry relative="1" as="geometry">
            <mxPoint x="910" y="595" as="sourcePoint" />
            <mxPoint x="1070" y="595" as="targetPoint" />
          </mxGeometry>
        </mxCell>
        <mxCell id="m4mPxKqUkQ5Nzj17A7rj-179" value="" style="endArrow=none;html=1;rounded=0;exitX=0.897;exitY=0.992;exitDx=0;exitDy=0;entryX=0;entryY=0;entryDx=0;entryDy=0;exitPerimeter=0;" edge="1" parent="1" source="m4mPxKqUkQ5Nzj17A7rj-9" target="m4mPxKqUkQ5Nzj17A7rj-76">
          <mxGeometry relative="1" as="geometry">
            <mxPoint x="910" y="595" as="sourcePoint" />
            <mxPoint x="1070" y="595" as="targetPoint" />
          </mxGeometry>
        </mxCell>
        <mxCell id="m4mPxKqUkQ5Nzj17A7rj-180" value="" style="endArrow=none;html=1;rounded=0;exitX=1;exitY=0.875;exitDx=0;exitDy=0;entryX=0;entryY=0.5;entryDx=0;entryDy=0;exitPerimeter=0;" edge="1" parent="1" source="m4mPxKqUkQ5Nzj17A7rj-9" target="m4mPxKqUkQ5Nzj17A7rj-74">
          <mxGeometry relative="1" as="geometry">
            <mxPoint x="770" y="675" as="sourcePoint" />
            <mxPoint x="930" y="675" as="targetPoint" />
          </mxGeometry>
        </mxCell>
        <mxCell id="m4mPxKqUkQ5Nzj17A7rj-181" value="" style="endArrow=none;html=1;rounded=0;exitX=1;exitY=0;exitDx=0;exitDy=0;entryX=0.25;entryY=1;entryDx=0;entryDy=0;" edge="1" parent="1" source="m4mPxKqUkQ5Nzj17A7rj-77" target="m4mPxKqUkQ5Nzj17A7rj-11">
          <mxGeometry relative="1" as="geometry">
            <mxPoint x="432.5" y="1020" as="sourcePoint" />
            <mxPoint x="592.5" y="1020" as="targetPoint" />
          </mxGeometry>
        </mxCell>
        <mxCell id="m4mPxKqUkQ5Nzj17A7rj-183" value="" style="endArrow=none;html=1;rounded=0;exitX=0.5;exitY=0;exitDx=0;exitDy=0;entryX=0.5;entryY=1;entryDx=0;entryDy=0;" edge="1" parent="1" source="m4mPxKqUkQ5Nzj17A7rj-78" target="m4mPxKqUkQ5Nzj17A7rj-11">
          <mxGeometry relative="1" as="geometry">
            <mxPoint x="432.5" y="1020" as="sourcePoint" />
            <mxPoint x="592.5" y="1020" as="targetPoint" />
          </mxGeometry>
        </mxCell>
        <mxCell id="m4mPxKqUkQ5Nzj17A7rj-184" value="" style="endArrow=none;html=1;rounded=0;exitX=0.5;exitY=1;exitDx=0;exitDy=0;" edge="1" parent="1" source="m4mPxKqUkQ5Nzj17A7rj-11" target="m4mPxKqUkQ5Nzj17A7rj-326">
          <mxGeometry relative="1" as="geometry">
            <mxPoint x="432.5" y="1020" as="sourcePoint" />
            <mxPoint x="635" y="1110" as="targetPoint" />
          </mxGeometry>
        </mxCell>
        <mxCell id="m4mPxKqUkQ5Nzj17A7rj-186" value="" style="endArrow=none;html=1;rounded=0;exitX=0.5;exitY=0;exitDx=0;exitDy=0;entryX=0.5;entryY=1;entryDx=0;entryDy=0;" edge="1" parent="1" source="m4mPxKqUkQ5Nzj17A7rj-80" target="m4mPxKqUkQ5Nzj17A7rj-11">
          <mxGeometry relative="1" as="geometry">
            <mxPoint x="432.5" y="1020" as="sourcePoint" />
            <mxPoint x="477.5" y="1020" as="targetPoint" />
          </mxGeometry>
        </mxCell>
        <mxCell id="m4mPxKqUkQ5Nzj17A7rj-187" value="" style="endArrow=none;html=1;rounded=0;exitX=0.5;exitY=0;exitDx=0;exitDy=0;entryX=0.75;entryY=1;entryDx=0;entryDy=0;" edge="1" parent="1" source="m4mPxKqUkQ5Nzj17A7rj-79" target="m4mPxKqUkQ5Nzj17A7rj-11">
          <mxGeometry relative="1" as="geometry">
            <mxPoint x="432.5" y="1020" as="sourcePoint" />
            <mxPoint x="592.5" y="1020" as="targetPoint" />
          </mxGeometry>
        </mxCell>
        <mxCell id="m4mPxKqUkQ5Nzj17A7rj-188" value="" style="endArrow=none;html=1;rounded=0;exitX=1;exitY=0.5;exitDx=0;exitDy=0;entryX=0;entryY=0.5;entryDx=0;entryDy=0;" edge="1" parent="1" source="m4mPxKqUkQ5Nzj17A7rj-82" target="m4mPxKqUkQ5Nzj17A7rj-10">
          <mxGeometry relative="1" as="geometry">
            <mxPoint x="562.5" y="785" as="sourcePoint" />
            <mxPoint x="722.5" y="785" as="targetPoint" />
          </mxGeometry>
        </mxCell>
        <mxCell id="m4mPxKqUkQ5Nzj17A7rj-189" value="" style="endArrow=none;html=1;rounded=0;exitX=0.5;exitY=0;exitDx=0;exitDy=0;entryX=0;entryY=0.5;entryDx=0;entryDy=0;" edge="1" parent="1" source="m4mPxKqUkQ5Nzj17A7rj-83" target="m4mPxKqUkQ5Nzj17A7rj-10">
          <mxGeometry relative="1" as="geometry">
            <mxPoint x="562.5" y="785" as="sourcePoint" />
            <mxPoint x="722.5" y="785" as="targetPoint" />
          </mxGeometry>
        </mxCell>
        <mxCell id="m4mPxKqUkQ5Nzj17A7rj-190" value="" style="endArrow=none;html=1;rounded=0;exitX=0.5;exitY=0;exitDx=0;exitDy=0;entryX=0.25;entryY=1;entryDx=0;entryDy=0;" edge="1" parent="1" source="m4mPxKqUkQ5Nzj17A7rj-87" target="m4mPxKqUkQ5Nzj17A7rj-10">
          <mxGeometry relative="1" as="geometry">
            <mxPoint x="562.5" y="785" as="sourcePoint" />
            <mxPoint x="722.5" y="785" as="targetPoint" />
          </mxGeometry>
        </mxCell>
        <mxCell id="m4mPxKqUkQ5Nzj17A7rj-191" value="" style="endArrow=none;html=1;rounded=0;exitX=0.5;exitY=0;exitDx=0;exitDy=0;entryX=0.25;entryY=1;entryDx=0;entryDy=0;" edge="1" parent="1" source="m4mPxKqUkQ5Nzj17A7rj-86" target="m4mPxKqUkQ5Nzj17A7rj-10">
          <mxGeometry relative="1" as="geometry">
            <mxPoint x="562.5" y="785" as="sourcePoint" />
            <mxPoint x="440" y="860" as="targetPoint" />
          </mxGeometry>
        </mxCell>
        <mxCell id="m4mPxKqUkQ5Nzj17A7rj-192" value="" style="endArrow=none;html=1;rounded=0;exitX=0;exitY=0.5;exitDx=0;exitDy=0;entryX=1;entryY=0.5;entryDx=0;entryDy=0;" edge="1" parent="1" source="m4mPxKqUkQ5Nzj17A7rj-10" target="m4mPxKqUkQ5Nzj17A7rj-257">
          <mxGeometry relative="1" as="geometry">
            <mxPoint x="562.5" y="785" as="sourcePoint" />
            <mxPoint x="289" y="935" as="targetPoint" />
          </mxGeometry>
        </mxCell>
        <mxCell id="m4mPxKqUkQ5Nzj17A7rj-193" value="" style="endArrow=none;html=1;rounded=0;exitX=0;exitY=0;exitDx=0;exitDy=0;entryX=1;entryY=1;entryDx=0;entryDy=0;" edge="1" parent="1" source="m4mPxKqUkQ5Nzj17A7rj-10" target="m4mPxKqUkQ5Nzj17A7rj-84">
          <mxGeometry relative="1" as="geometry">
            <mxPoint x="562.5" y="785" as="sourcePoint" />
            <mxPoint x="722.5" y="785" as="targetPoint" />
          </mxGeometry>
        </mxCell>
        <mxCell id="m4mPxKqUkQ5Nzj17A7rj-195" value="Warden ID" style="ellipse;whiteSpace=wrap;html=1;align=center;fontStyle=4;" vertex="1" parent="1">
          <mxGeometry x="1130" y="30" width="100" height="40" as="geometry" />
        </mxCell>
        <mxCell id="m4mPxKqUkQ5Nzj17A7rj-196" value="" style="endArrow=none;html=1;rounded=0;exitX=0.5;exitY=1;exitDx=0;exitDy=0;entryX=1;entryY=0;entryDx=0;entryDy=0;" edge="1" parent="1" source="m4mPxKqUkQ5Nzj17A7rj-195" target="m4mPxKqUkQ5Nzj17A7rj-2">
          <mxGeometry relative="1" as="geometry">
            <mxPoint x="760" y="250" as="sourcePoint" />
            <mxPoint x="920" y="250" as="targetPoint" />
          </mxGeometry>
        </mxCell>
        <mxCell id="m4mPxKqUkQ5Nzj17A7rj-197" value="" style="endArrow=none;html=1;rounded=0;exitX=1;exitY=0.5;exitDx=0;exitDy=0;entryX=0;entryY=0.5;entryDx=0;entryDy=0;" edge="1" parent="1" source="m4mPxKqUkQ5Nzj17A7rj-1" target="m4mPxKqUkQ5Nzj17A7rj-96">
          <mxGeometry relative="1" as="geometry">
            <mxPoint x="630" y="190" as="sourcePoint" />
            <mxPoint x="790" y="190" as="targetPoint" />
          </mxGeometry>
        </mxCell>
        <mxCell id="m4mPxKqUkQ5Nzj17A7rj-198" value="" style="endArrow=none;html=1;rounded=0;exitX=1;exitY=0.5;exitDx=0;exitDy=0;entryX=0;entryY=0.5;entryDx=0;entryDy=0;" edge="1" parent="1" source="m4mPxKqUkQ5Nzj17A7rj-96" target="m4mPxKqUkQ5Nzj17A7rj-2">
          <mxGeometry relative="1" as="geometry">
            <mxPoint x="630" y="190" as="sourcePoint" />
            <mxPoint x="790" y="190" as="targetPoint" />
          </mxGeometry>
        </mxCell>
        <mxCell id="m4mPxKqUkQ5Nzj17A7rj-201" value="" style="endArrow=none;html=1;rounded=0;exitX=0.25;exitY=1;exitDx=0;exitDy=0;entryX=0.5;entryY=0;entryDx=0;entryDy=0;" edge="1" parent="1" source="m4mPxKqUkQ5Nzj17A7rj-1" target="m4mPxKqUkQ5Nzj17A7rj-95">
          <mxGeometry relative="1" as="geometry">
            <mxPoint x="450" y="460" as="sourcePoint" />
            <mxPoint x="610" y="460" as="targetPoint" />
          </mxGeometry>
        </mxCell>
        <mxCell id="m4mPxKqUkQ5Nzj17A7rj-207" value="" style="endArrow=none;html=1;rounded=0;exitX=0.5;exitY=1;exitDx=0;exitDy=0;entryX=0.5;entryY=0;entryDx=0;entryDy=0;" edge="1" parent="1" source="m4mPxKqUkQ5Nzj17A7rj-1" target="m4mPxKqUkQ5Nzj17A7rj-94">
          <mxGeometry relative="1" as="geometry">
            <mxPoint x="260" y="450" as="sourcePoint" />
            <mxPoint x="420" y="450" as="targetPoint" />
          </mxGeometry>
        </mxCell>
        <mxCell id="m4mPxKqUkQ5Nzj17A7rj-209" style="edgeStyle=orthogonalEdgeStyle;rounded=0;orthogonalLoop=1;jettySize=auto;html=1;exitX=0.5;exitY=1;exitDx=0;exitDy=0;" edge="1" parent="1">
          <mxGeometry relative="1" as="geometry">
            <mxPoint x="262.5" y="579.6500000000001" as="sourcePoint" />
            <mxPoint x="262.5" y="579.6500000000001" as="targetPoint" />
          </mxGeometry>
        </mxCell>
        <mxCell id="m4mPxKqUkQ5Nzj17A7rj-210" value="" style="endArrow=none;html=1;rounded=0;exitX=0;exitY=1;exitDx=0;exitDy=0;entryX=0.5;entryY=0;entryDx=0;entryDy=0;" edge="1" parent="1" source="m4mPxKqUkQ5Nzj17A7rj-5" target="m4mPxKqUkQ5Nzj17A7rj-51">
          <mxGeometry relative="1" as="geometry">
            <mxPoint x="690" y="620" as="sourcePoint" />
            <mxPoint x="850" y="620" as="targetPoint" />
          </mxGeometry>
        </mxCell>
        <mxCell id="m4mPxKqUkQ5Nzj17A7rj-213" style="edgeStyle=orthogonalEdgeStyle;rounded=0;orthogonalLoop=1;jettySize=auto;html=1;exitX=0.5;exitY=1;exitDx=0;exitDy=0;" edge="1" parent="1" source="m4mPxKqUkQ5Nzj17A7rj-51" target="m4mPxKqUkQ5Nzj17A7rj-51">
          <mxGeometry relative="1" as="geometry" />
        </mxCell>
        <mxCell id="m4mPxKqUkQ5Nzj17A7rj-214" value="" style="endArrow=none;html=1;rounded=0;exitX=1;exitY=0.5;exitDx=0;exitDy=0;entryX=0;entryY=0.5;entryDx=0;entryDy=0;" edge="1" parent="1" source="m4mPxKqUkQ5Nzj17A7rj-97" target="m4mPxKqUkQ5Nzj17A7rj-5">
          <mxGeometry relative="1" as="geometry">
            <mxPoint x="770" y="660" as="sourcePoint" />
            <mxPoint x="930" y="660" as="targetPoint" />
          </mxGeometry>
        </mxCell>
        <mxCell id="m4mPxKqUkQ5Nzj17A7rj-215" value="" style="endArrow=none;html=1;rounded=0;exitX=1;exitY=0.75;exitDx=0;exitDy=0;entryX=0;entryY=0.5;entryDx=0;entryDy=0;" edge="1" parent="1" source="m4mPxKqUkQ5Nzj17A7rj-1" target="m4mPxKqUkQ5Nzj17A7rj-98">
          <mxGeometry relative="1" as="geometry">
            <mxPoint x="670" y="430" as="sourcePoint" />
            <mxPoint x="830" y="430" as="targetPoint" />
          </mxGeometry>
        </mxCell>
        <mxCell id="m4mPxKqUkQ5Nzj17A7rj-220" value="" style="endArrow=none;html=1;rounded=0;exitX=1;exitY=0.5;exitDx=0;exitDy=0;entryX=0;entryY=0.5;entryDx=0;entryDy=0;" edge="1" parent="1" source="m4mPxKqUkQ5Nzj17A7rj-99" target="m4mPxKqUkQ5Nzj17A7rj-6">
          <mxGeometry relative="1" as="geometry">
            <mxPoint x="790" y="800" as="sourcePoint" />
            <mxPoint x="950" y="800" as="targetPoint" />
          </mxGeometry>
        </mxCell>
        <mxCell id="m4mPxKqUkQ5Nzj17A7rj-222" style="edgeStyle=orthogonalEdgeStyle;rounded=0;orthogonalLoop=1;jettySize=auto;html=1;exitX=0.5;exitY=1;exitDx=0;exitDy=0;" edge="1" parent="1" source="m4mPxKqUkQ5Nzj17A7rj-140" target="m4mPxKqUkQ5Nzj17A7rj-140">
          <mxGeometry relative="1" as="geometry" />
        </mxCell>
        <mxCell id="m4mPxKqUkQ5Nzj17A7rj-236" value="Assigned Cell ID" style="ellipse;whiteSpace=wrap;html=1;align=center;" vertex="1" parent="1">
          <mxGeometry x="180" y="505.5" width="105" height="44.5" as="geometry" />
        </mxCell>
        <mxCell id="m4mPxKqUkQ5Nzj17A7rj-238" value="" style="endArrow=none;html=1;rounded=0;exitX=0.75;exitY=1;exitDx=0;exitDy=0;entryX=0.5;entryY=0;entryDx=0;entryDy=0;" edge="1" parent="1" source="m4mPxKqUkQ5Nzj17A7rj-8" target="m4mPxKqUkQ5Nzj17A7rj-69">
          <mxGeometry relative="1" as="geometry">
            <mxPoint x="530" y="790" as="sourcePoint" />
            <mxPoint x="690" y="790" as="targetPoint" />
          </mxGeometry>
        </mxCell>
        <mxCell id="m4mPxKqUkQ5Nzj17A7rj-242" value="Sentence_End_Date" style="ellipse;whiteSpace=wrap;html=1;align=center;" vertex="1" parent="1">
          <mxGeometry x="430" y="310" width="130" height="40" as="geometry" />
        </mxCell>
        <mxCell id="m4mPxKqUkQ5Nzj17A7rj-245" value="" style="endArrow=none;html=1;rounded=0;exitX=0.5;exitY=0;exitDx=0;exitDy=0;entryX=0.5;entryY=1;entryDx=0;entryDy=0;" edge="1" parent="1" source="m4mPxKqUkQ5Nzj17A7rj-72" target="m4mPxKqUkQ5Nzj17A7rj-9">
          <mxGeometry relative="1" as="geometry">
            <mxPoint x="700" y="740" as="sourcePoint" />
            <mxPoint x="860" y="740" as="targetPoint" />
          </mxGeometry>
        </mxCell>
        <mxCell id="m4mPxKqUkQ5Nzj17A7rj-247" value="Crime_Type" style="ellipse;whiteSpace=wrap;html=1;align=center;" vertex="1" parent="1">
          <mxGeometry x="380" y="345" width="80" height="35" as="geometry" />
        </mxCell>
        <mxCell id="m4mPxKqUkQ5Nzj17A7rj-257" value="Outcome" style="ellipse;whiteSpace=wrap;html=1;align=center;" vertex="1" parent="1">
          <mxGeometry x="235" y="875" width="90" height="30" as="geometry" />
        </mxCell>
        <mxCell id="m4mPxKqUkQ5Nzj17A7rj-267" value="" style="fontSize=12;html=1;endArrow=ERmany;rounded=0;entryX=0.5;entryY=1;entryDx=0;entryDy=0;exitX=0.5;exitY=0;exitDx=0;exitDy=0;" edge="1" parent="1" source="m4mPxKqUkQ5Nzj17A7rj-105" target="m4mPxKqUkQ5Nzj17A7rj-10">
          <mxGeometry width="100" height="100" relative="1" as="geometry">
            <mxPoint x="460" y="880" as="sourcePoint" />
            <mxPoint x="730" y="690" as="targetPoint" />
          </mxGeometry>
        </mxCell>
        <mxCell id="m4mPxKqUkQ5Nzj17A7rj-269" value="" style="fontSize=12;html=1;endArrow=ERmany;rounded=0;exitX=0.5;exitY=1;exitDx=0;exitDy=0;entryX=0.5;entryY=0;entryDx=0;entryDy=0;" edge="1" parent="1" source="m4mPxKqUkQ5Nzj17A7rj-105" target="m4mPxKqUkQ5Nzj17A7rj-11">
          <mxGeometry width="100" height="100" relative="1" as="geometry">
            <mxPoint x="630" y="790" as="sourcePoint" />
            <mxPoint x="730" y="690" as="targetPoint" />
          </mxGeometry>
        </mxCell>
        <mxCell id="m4mPxKqUkQ5Nzj17A7rj-283" value="Chef" style="whiteSpace=wrap;html=1;align=center;" vertex="1" parent="1">
          <mxGeometry x="622.5" y="150" width="100" height="40" as="geometry" />
        </mxCell>
        <mxCell id="m4mPxKqUkQ5Nzj17A7rj-284" value="Chef ID" style="ellipse;whiteSpace=wrap;html=1;align=center;fontStyle=4;" vertex="1" parent="1">
          <mxGeometry x="672.49" y="230" width="82.5" height="20" as="geometry" />
        </mxCell>
        <mxCell id="m4mPxKqUkQ5Nzj17A7rj-285" value="Ch_Name" style="ellipse;whiteSpace=wrap;html=1;align=center;" vertex="1" parent="1">
          <mxGeometry x="550" y="110" width="70" height="20" as="geometry" />
        </mxCell>
        <mxCell id="m4mPxKqUkQ5Nzj17A7rj-286" value="Ch_Role" style="ellipse;whiteSpace=wrap;html=1;align=center;" vertex="1" parent="1">
          <mxGeometry x="576.25" y="81.25" width="74.99" height="17.5" as="geometry" />
        </mxCell>
        <mxCell id="m4mPxKqUkQ5Nzj17A7rj-287" value="Ch_Shift_Timings" style="ellipse;whiteSpace=wrap;html=1;align=center;" vertex="1" parent="1">
          <mxGeometry x="635.62" y="100" width="104.38" height="23.75" as="geometry" />
        </mxCell>
        <mxCell id="m4mPxKqUkQ5Nzj17A7rj-289" value="Ch_Specialization" style="ellipse;whiteSpace=wrap;html=1;align=center;" vertex="1" parent="1">
          <mxGeometry x="714.99" y="190" width="120" height="30" as="geometry" />
        </mxCell>
        <mxCell id="m4mPxKqUkQ5Nzj17A7rj-290" value="" style="endArrow=none;html=1;rounded=0;exitX=0.5;exitY=0;exitDx=0;exitDy=0;entryX=0.829;entryY=1.028;entryDx=0;entryDy=0;entryPerimeter=0;" edge="1" parent="1" source="m4mPxKqUkQ5Nzj17A7rj-284" target="m4mPxKqUkQ5Nzj17A7rj-283">
          <mxGeometry relative="1" as="geometry">
            <mxPoint x="555" y="375" as="sourcePoint" />
            <mxPoint x="715" y="375" as="targetPoint" />
          </mxGeometry>
        </mxCell>
        <mxCell id="m4mPxKqUkQ5Nzj17A7rj-291" value="" style="endArrow=none;html=1;rounded=0;exitX=1;exitY=0.25;exitDx=0;exitDy=0;entryX=0.5;entryY=0;entryDx=0;entryDy=0;" edge="1" parent="1" source="m4mPxKqUkQ5Nzj17A7rj-283" target="m4mPxKqUkQ5Nzj17A7rj-289">
          <mxGeometry relative="1" as="geometry">
            <mxPoint x="555" y="375" as="sourcePoint" />
            <mxPoint x="715" y="375" as="targetPoint" />
          </mxGeometry>
        </mxCell>
        <mxCell id="m4mPxKqUkQ5Nzj17A7rj-292" value="" style="endArrow=none;html=1;rounded=0;exitX=0.75;exitY=0;exitDx=0;exitDy=0;entryX=0;entryY=0.5;entryDx=0;entryDy=0;" edge="1" parent="1" source="m4mPxKqUkQ5Nzj17A7rj-283" target="m4mPxKqUkQ5Nzj17A7rj-323">
          <mxGeometry relative="1" as="geometry">
            <mxPoint x="555" y="375" as="sourcePoint" />
            <mxPoint x="719.9999999999932" y="132.5" as="targetPoint" />
          </mxGeometry>
        </mxCell>
        <mxCell id="m4mPxKqUkQ5Nzj17A7rj-293" value="" style="endArrow=none;html=1;rounded=0;exitX=0.25;exitY=0;exitDx=0;exitDy=0;entryX=0.5;entryY=1;entryDx=0;entryDy=0;" edge="1" parent="1" source="m4mPxKqUkQ5Nzj17A7rj-283" target="m4mPxKqUkQ5Nzj17A7rj-287">
          <mxGeometry relative="1" as="geometry">
            <mxPoint x="555" y="375" as="sourcePoint" />
            <mxPoint x="715" y="375" as="targetPoint" />
          </mxGeometry>
        </mxCell>
        <mxCell id="m4mPxKqUkQ5Nzj17A7rj-294" value="" style="endArrow=none;html=1;rounded=0;exitX=0.5;exitY=1;exitDx=0;exitDy=0;entryX=0.25;entryY=0;entryDx=0;entryDy=0;" edge="1" parent="1" source="m4mPxKqUkQ5Nzj17A7rj-286" target="m4mPxKqUkQ5Nzj17A7rj-283">
          <mxGeometry relative="1" as="geometry">
            <mxPoint x="555" y="375" as="sourcePoint" />
            <mxPoint x="715" y="375" as="targetPoint" />
          </mxGeometry>
        </mxCell>
        <mxCell id="m4mPxKqUkQ5Nzj17A7rj-295" value="" style="endArrow=none;html=1;rounded=0;exitX=0.25;exitY=0;exitDx=0;exitDy=0;entryX=0.5;entryY=1;entryDx=0;entryDy=0;" edge="1" parent="1" source="m4mPxKqUkQ5Nzj17A7rj-283" target="m4mPxKqUkQ5Nzj17A7rj-285">
          <mxGeometry relative="1" as="geometry">
            <mxPoint x="1023.75" y="190" as="sourcePoint" />
            <mxPoint x="673" y="120" as="targetPoint" />
          </mxGeometry>
        </mxCell>
        <mxCell id="m4mPxKqUkQ5Nzj17A7rj-299" value="provides_meal" style="shape=rhombus;perimeter=rhombusPerimeter;whiteSpace=wrap;html=1;align=center;rotation=290;" vertex="1" parent="1">
          <mxGeometry x="559.1" y="243.16" width="102.5" height="72.56" as="geometry" />
        </mxCell>
        <mxCell id="m4mPxKqUkQ5Nzj17A7rj-300" value="" style="fontSize=12;html=1;endArrow=ERmany;rounded=0;entryX=0.394;entryY=0.983;entryDx=0;entryDy=0;exitX=1;exitY=0.5;exitDx=0;exitDy=0;entryPerimeter=0;" edge="1" parent="1" source="m4mPxKqUkQ5Nzj17A7rj-299" target="m4mPxKqUkQ5Nzj17A7rj-283">
          <mxGeometry width="100" height="100" relative="1" as="geometry">
            <mxPoint x="680" y="410" as="sourcePoint" />
            <mxPoint x="780" y="310" as="targetPoint" />
          </mxGeometry>
        </mxCell>
        <mxCell id="m4mPxKqUkQ5Nzj17A7rj-302" value="Sentence_Start_Date" style="ellipse;whiteSpace=wrap;html=1;align=center;rotation=6;" vertex="1" parent="1">
          <mxGeometry x="497.5" y="557" width="125" height="35" as="geometry" />
        </mxCell>
        <mxCell id="m4mPxKqUkQ5Nzj17A7rj-303" value="" style="fontSize=12;html=1;endArrow=ERmany;rounded=0;exitX=0;exitY=0.5;exitDx=0;exitDy=0;entryX=0.648;entryY=-0.017;entryDx=0;entryDy=0;entryPerimeter=0;" edge="1" parent="1" source="m4mPxKqUkQ5Nzj17A7rj-299" target="m4mPxKqUkQ5Nzj17A7rj-4">
          <mxGeometry width="100" height="100" relative="1" as="geometry">
            <mxPoint x="600" y="420" as="sourcePoint" />
            <mxPoint x="700" y="320" as="targetPoint" />
          </mxGeometry>
        </mxCell>
        <mxCell id="m4mPxKqUkQ5Nzj17A7rj-305" value="" style="endArrow=none;html=1;rounded=0;exitX=1;exitY=1;exitDx=0;exitDy=0;entryX=0;entryY=0.5;entryDx=0;entryDy=0;" edge="1" parent="1" source="m4mPxKqUkQ5Nzj17A7rj-1" target="m4mPxKqUkQ5Nzj17A7rj-106">
          <mxGeometry relative="1" as="geometry">
            <mxPoint x="370" y="250" as="sourcePoint" />
            <mxPoint x="440" y="230" as="targetPoint" />
          </mxGeometry>
        </mxCell>
        <mxCell id="m4mPxKqUkQ5Nzj17A7rj-306" value="" style="fontSize=12;html=1;endArrow=ERmany;rounded=0;exitX=1;exitY=0.5;exitDx=0;exitDy=0;entryX=0;entryY=0.25;entryDx=0;entryDy=0;" edge="1" parent="1" source="m4mPxKqUkQ5Nzj17A7rj-106" target="m4mPxKqUkQ5Nzj17A7rj-283">
          <mxGeometry width="100" height="100" relative="1" as="geometry">
            <mxPoint x="680" y="340" as="sourcePoint" />
            <mxPoint x="620" y="170" as="targetPoint" />
          </mxGeometry>
        </mxCell>
        <mxCell id="m4mPxKqUkQ5Nzj17A7rj-308" value="" style="fontSize=12;html=1;endArrow=ERmany;rounded=0;exitX=0;exitY=0.5;exitDx=0;exitDy=0;" edge="1" parent="1" source="m4mPxKqUkQ5Nzj17A7rj-108" target="m4mPxKqUkQ5Nzj17A7rj-10">
          <mxGeometry width="100" height="100" relative="1" as="geometry">
            <mxPoint x="820" y="730" as="sourcePoint" />
            <mxPoint x="920" y="630" as="targetPoint" />
          </mxGeometry>
        </mxCell>
        <mxCell id="m4mPxKqUkQ5Nzj17A7rj-309" value="" style="edgeStyle=orthogonalEdgeStyle;fontSize=12;html=1;endArrow=ERmany;rounded=0;exitX=1;exitY=0.5;exitDx=0;exitDy=0;entryX=0.75;entryY=1;entryDx=0;entryDy=0;" edge="1" parent="1">
          <mxGeometry width="100" height="100" relative="1" as="geometry">
            <mxPoint x="863.9899999999998" y="801.52" as="sourcePoint" />
            <mxPoint x="884" y="537.1500000000001" as="targetPoint" />
            <Array as="points">
              <mxPoint x="864" y="800" />
              <mxPoint x="920" y="800" />
              <mxPoint x="920" y="610" />
              <mxPoint x="884" y="610" />
            </Array>
          </mxGeometry>
        </mxCell>
        <mxCell id="m4mPxKqUkQ5Nzj17A7rj-310" value="" style="fontSize=12;html=1;endArrow=ERmany;rounded=0;exitX=0.5;exitY=1;exitDx=0;exitDy=0;entryX=0.5;entryY=0;entryDx=0;entryDy=0;" edge="1" parent="1" source="m4mPxKqUkQ5Nzj17A7rj-95" target="m4mPxKqUkQ5Nzj17A7rj-3">
          <mxGeometry width="100" height="100" relative="1" as="geometry">
            <mxPoint x="490" y="380" as="sourcePoint" />
            <mxPoint x="590" y="280" as="targetPoint" />
          </mxGeometry>
        </mxCell>
        <mxCell id="m4mPxKqUkQ5Nzj17A7rj-311" value="" style="fontSize=12;html=1;endArrow=ERmany;rounded=0;exitX=0.5;exitY=1;exitDx=0;exitDy=0;entryX=0.25;entryY=0;entryDx=0;entryDy=0;" edge="1" parent="1" source="m4mPxKqUkQ5Nzj17A7rj-94" target="m4mPxKqUkQ5Nzj17A7rj-4">
          <mxGeometry width="100" height="100" relative="1" as="geometry">
            <mxPoint x="490" y="380" as="sourcePoint" />
            <mxPoint x="590" y="280" as="targetPoint" />
          </mxGeometry>
        </mxCell>
        <mxCell id="m4mPxKqUkQ5Nzj17A7rj-312" value="" style="fontSize=12;html=1;endArrow=ERmany;rounded=0;exitX=0;exitY=0.5;exitDx=0;exitDy=0;entryX=1;entryY=0;entryDx=0;entryDy=0;" edge="1" parent="1" source="m4mPxKqUkQ5Nzj17A7rj-97" target="m4mPxKqUkQ5Nzj17A7rj-4">
          <mxGeometry width="100" height="100" relative="1" as="geometry">
            <mxPoint x="560" y="510" as="sourcePoint" />
            <mxPoint x="660" y="410" as="targetPoint" />
          </mxGeometry>
        </mxCell>
        <mxCell id="m4mPxKqUkQ5Nzj17A7rj-313" value="" style="fontSize=12;html=1;endArrow=ERmany;rounded=0;entryX=0.5;entryY=0;entryDx=0;entryDy=0;exitX=1;exitY=0.5;exitDx=0;exitDy=0;" edge="1" parent="1" source="m4mPxKqUkQ5Nzj17A7rj-98" target="m4mPxKqUkQ5Nzj17A7rj-5">
          <mxGeometry width="100" height="100" relative="1" as="geometry">
            <mxPoint x="560" y="280" as="sourcePoint" />
            <mxPoint x="660" y="180" as="targetPoint" />
          </mxGeometry>
        </mxCell>
        <mxCell id="m4mPxKqUkQ5Nzj17A7rj-314" value="" style="fontSize=12;html=1;endArrow=ERmany;rounded=0;entryX=1;entryY=0.25;entryDx=0;entryDy=0;exitX=0;exitY=0.5;exitDx=0;exitDy=0;" edge="1" parent="1" source="m4mPxKqUkQ5Nzj17A7rj-99" target="m4mPxKqUkQ5Nzj17A7rj-4">
          <mxGeometry width="100" height="100" relative="1" as="geometry">
            <mxPoint x="590" y="500" as="sourcePoint" />
            <mxPoint x="690" y="400" as="targetPoint" />
          </mxGeometry>
        </mxCell>
        <mxCell id="m4mPxKqUkQ5Nzj17A7rj-315" value="" style="fontSize=12;html=1;endArrow=ERmany;rounded=0;entryX=1;entryY=0.5;entryDx=0;entryDy=0;exitX=0;exitY=0.5;exitDx=0;exitDy=0;" edge="1" parent="1" source="m4mPxKqUkQ5Nzj17A7rj-100" target="m4mPxKqUkQ5Nzj17A7rj-4">
          <mxGeometry width="100" height="100" relative="1" as="geometry">
            <mxPoint x="590" y="500" as="sourcePoint" />
            <mxPoint x="690" y="400" as="targetPoint" />
          </mxGeometry>
        </mxCell>
        <mxCell id="m4mPxKqUkQ5Nzj17A7rj-316" value="" style="fontSize=12;html=1;endArrow=ERmany;rounded=0;exitX=1;exitY=0.5;exitDx=0;exitDy=0;" edge="1" parent="1" source="m4mPxKqUkQ5Nzj17A7rj-100" target="m4mPxKqUkQ5Nzj17A7rj-7">
          <mxGeometry width="100" height="100" relative="1" as="geometry">
            <mxPoint x="590" y="500" as="sourcePoint" />
            <mxPoint x="690" y="400" as="targetPoint" />
          </mxGeometry>
        </mxCell>
        <mxCell id="m4mPxKqUkQ5Nzj17A7rj-317" value="" style="fontSize=12;html=1;endArrow=ERmany;rounded=0;exitX=0.5;exitY=0;exitDx=0;exitDy=0;entryX=0.5;entryY=1;entryDx=0;entryDy=0;" edge="1" parent="1" source="m4mPxKqUkQ5Nzj17A7rj-101" target="m4mPxKqUkQ5Nzj17A7rj-4">
          <mxGeometry width="100" height="100" relative="1" as="geometry">
            <mxPoint x="590" y="500" as="sourcePoint" />
            <mxPoint x="690" y="400" as="targetPoint" />
          </mxGeometry>
        </mxCell>
        <mxCell id="m4mPxKqUkQ5Nzj17A7rj-318" value="" style="fontSize=12;html=1;endArrow=ERmany;rounded=0;exitX=0.5;exitY=1;exitDx=0;exitDy=0;entryX=0.5;entryY=0;entryDx=0;entryDy=0;" edge="1" parent="1" source="m4mPxKqUkQ5Nzj17A7rj-101" target="m4mPxKqUkQ5Nzj17A7rj-8">
          <mxGeometry width="100" height="100" relative="1" as="geometry">
            <mxPoint x="590" y="600" as="sourcePoint" />
            <mxPoint x="690" y="500" as="targetPoint" />
          </mxGeometry>
        </mxCell>
        <mxCell id="m4mPxKqUkQ5Nzj17A7rj-319" value="" style="fontSize=12;html=1;endArrow=ERmany;rounded=0;exitX=0;exitY=0.5;exitDx=0;exitDy=0;entryX=1;entryY=0.75;entryDx=0;entryDy=0;" edge="1" parent="1" source="m4mPxKqUkQ5Nzj17A7rj-103" target="m4mPxKqUkQ5Nzj17A7rj-4">
          <mxGeometry width="100" height="100" relative="1" as="geometry">
            <mxPoint x="590" y="600" as="sourcePoint" />
            <mxPoint x="690" y="500" as="targetPoint" />
          </mxGeometry>
        </mxCell>
        <mxCell id="m4mPxKqUkQ5Nzj17A7rj-320" value="" style="fontSize=12;html=1;endArrow=ERmany;rounded=0;entryX=0.5;entryY=0;entryDx=0;entryDy=0;exitX=1;exitY=0.5;exitDx=0;exitDy=0;" edge="1" parent="1" source="m4mPxKqUkQ5Nzj17A7rj-103" target="m4mPxKqUkQ5Nzj17A7rj-9">
          <mxGeometry width="100" height="100" relative="1" as="geometry">
            <mxPoint x="590" y="600" as="sourcePoint" />
            <mxPoint x="690" y="500" as="targetPoint" />
          </mxGeometry>
        </mxCell>
        <mxCell id="m4mPxKqUkQ5Nzj17A7rj-321" value="" style="fontSize=12;html=1;endArrow=ERmany;rounded=0;exitX=0;exitY=0.5;exitDx=0;exitDy=0;entryX=1;entryY=1;entryDx=0;entryDy=0;" edge="1" parent="1" source="m4mPxKqUkQ5Nzj17A7rj-104" target="m4mPxKqUkQ5Nzj17A7rj-4">
          <mxGeometry width="100" height="100" relative="1" as="geometry">
            <mxPoint x="590" y="600" as="sourcePoint" />
            <mxPoint x="690" y="500" as="targetPoint" />
          </mxGeometry>
        </mxCell>
        <mxCell id="m4mPxKqUkQ5Nzj17A7rj-322" value="" style="fontSize=12;html=1;endArrow=ERmany;rounded=0;exitX=1;exitY=0.5;exitDx=0;exitDy=0;entryX=0.5;entryY=0;entryDx=0;entryDy=0;" edge="1" parent="1" source="m4mPxKqUkQ5Nzj17A7rj-104" target="m4mPxKqUkQ5Nzj17A7rj-10">
          <mxGeometry width="100" height="100" relative="1" as="geometry">
            <mxPoint x="590" y="600" as="sourcePoint" />
            <mxPoint x="690" y="500" as="targetPoint" />
          </mxGeometry>
        </mxCell>
        <mxCell id="m4mPxKqUkQ5Nzj17A7rj-323" value="Ch_Phone" style="ellipse;shape=doubleEllipse;margin=3;whiteSpace=wrap;html=1;align=center;" vertex="1" parent="1">
          <mxGeometry x="724.38" y="120" width="70" height="30" as="geometry" />
        </mxCell>
        <mxCell id="m4mPxKqUkQ5Nzj17A7rj-324" value="W_Phone" style="ellipse;shape=doubleEllipse;margin=3;whiteSpace=wrap;html=1;align=center;" vertex="1" parent="1">
          <mxGeometry x="950" y="-20" width="100" height="40" as="geometry" />
        </mxCell>
        <mxCell id="m4mPxKqUkQ5Nzj17A7rj-325" value="L_Phone" style="ellipse;shape=doubleEllipse;margin=3;whiteSpace=wrap;html=1;align=center;" vertex="1" parent="1">
          <mxGeometry x="920" y="570" width="100" height="40" as="geometry" />
        </mxCell>
        <mxCell id="m4mPxKqUkQ5Nzj17A7rj-326" value="PO_Phone" style="ellipse;shape=doubleEllipse;margin=3;whiteSpace=wrap;html=1;align=center;" vertex="1" parent="1">
          <mxGeometry x="589.38" y="1120" width="100" height="40" as="geometry" />
        </mxCell>
        <mxCell id="m4mPxKqUkQ5Nzj17A7rj-327" value="M_Phone" style="ellipse;shape=doubleEllipse;margin=3;whiteSpace=wrap;html=1;align=center;" vertex="1" parent="1">
          <mxGeometry x="400" y="655" width="90" height="30" as="geometry" />
        </mxCell>
        <mxCell id="m4mPxKqUkQ5Nzj17A7rj-328" value="O_Phone" style="ellipse;shape=doubleEllipse;margin=3;whiteSpace=wrap;html=1;align=center;" vertex="1" parent="1">
          <mxGeometry x="44" y="545.5" width="100" height="40" as="geometry" />
        </mxCell>
      </root>
    </mxGraphModel>
  </diagram>
</mxfile>
